<svg width="40" height="40" viewBox="0 0 40 40" fill="none" xmlns="http://www.w3.org/2000/svg">
  <path d="M23.9591 15.9091H23.0773V16.8182H23.9591V15.9091Z" fill="currentColor" />
  <path
    d="M13.3818 27.4636L13.4363 27.4909C13.5276 27.5228 13.6269 27.5228 13.7182 27.4909C13.8312 27.4585 13.9274 27.3836 13.9863 27.2818L15.5272 24.5454C15.5831 24.4434 15.5977 24.3239 15.5681 24.2115C15.5385 24.099 15.467 24.0022 15.3682 23.9409L15.3227 23.9136H15.2682C15.1744 23.883 15.073 23.8857 14.981 23.9213C14.889 23.9569 14.8122 24.0233 14.7636 24.1091L13.2182 26.8636C13.1641 26.9657 13.1509 27.0845 13.1813 27.196C13.2117 27.3074 13.2834 27.4031 13.3818 27.4636Z"
    fill="currentColor" />
  <path
    d="M34.0909 24.5454L29.1545 11.4818L29.0909 11.3636C28.8635 10.8072 28.4986 10.3176 28.0303 9.9408C27.5621 9.56395 27.0058 9.31218 26.4136 9.20907L24.8682 8.95453L24.8273 6.79089C24.8206 6.44323 24.6813 6.11124 24.438 5.86284C24.1947 5.61443 23.8656 5.46837 23.5182 5.45453H16.0273C15.6727 5.46517 15.3363 5.61352 15.0894 5.86811C14.8424 6.1227 14.7044 6.46348 14.7045 6.81817V8.97726L13.5727 9.1818C12.973 9.29349 12.4125 9.5586 11.9457 9.95132C11.4789 10.344 11.1217 10.851 10.9091 11.4227L5.90908 24.5454V29.0909C5.89695 29.3173 5.95625 29.5417 6.07859 29.7326C6.20093 29.9234 6.38014 30.071 6.5909 30.1545L10.3818 30.9954L10.5727 32.9136C10.61 33.3551 10.8104 33.7668 11.1347 34.0685C11.4591 34.3702 11.8843 34.5402 12.3273 34.5454H27.6545C28.0968 34.5403 28.5213 34.3709 28.8456 34.0702C29.1699 33.7694 29.3707 33.3588 29.4091 32.9182L29.6 30.9773L33.4 30.1591C33.6025 30.1102 33.7821 29.9932 33.9087 29.8277C34.0354 29.6622 34.1013 29.4583 34.0954 29.25L34.0909 24.5454ZM28.2954 11.7182L30.7 18.0818L27.5454 19.25L25.9091 14.0909C25.8734 13.9799 25.7964 13.8868 25.694 13.831C25.5917 13.7752 25.4717 13.7608 25.3591 13.7909H25.3227C25.2179 13.8262 25.1312 13.9012 25.081 13.9998C25.0309 14.0984 25.0214 14.2127 25.0545 14.3182L25.5454 15.9091H24.8409V16.8182H25.8409L27.4591 21.8182H20.4545V16.8182H22.2182V15.9091H20.4545V10.3045C22.3318 10.2818 23.6364 10.1091 24.3591 9.79544L26.3136 10.1136C26.7518 10.194 27.1628 10.383 27.509 10.6633C27.8552 10.9436 28.1256 11.3063 28.2954 11.7182ZM19.5454 21.8182H12.4682L14.0454 16.8182H19.5454V21.8182ZM23.5136 6.36362C23.6342 6.36362 23.7498 6.41151 23.835 6.49675C23.9203 6.582 23.9682 6.69761 23.9682 6.81817L24.0136 8.80907L23.1409 8.66362L23.0273 8.63635H22.1954V6.36362H23.5136ZM15.5864 6.81817C15.5864 6.69761 15.6342 6.582 15.7195 6.49675C15.8047 6.41151 15.9203 6.36362 16.0409 6.36362H21.3136V8.63635H16.5318L15.5864 8.81362V6.81817ZM11.7454 11.75C11.9045 11.3233 12.1709 10.9448 12.5188 10.651C12.8667 10.3572 13.2845 10.1581 13.7318 10.0727L15.2091 9.79544C16.0454 10.1136 17.4818 10.2863 19.5454 10.3091V15.9091H14.3318L14.8227 14.3591C14.8249 14.3517 14.8249 14.3438 14.8227 14.3363C14.8512 14.2321 14.8383 14.1209 14.7866 14.026C14.7349 13.9311 14.6485 13.8598 14.5454 13.8273C14.4328 13.7987 14.3135 13.8143 14.2121 13.871C14.1107 13.9276 14.0348 14.0209 14 14.1318L12.3818 19.2273L9.31817 18.0773L11.7454 11.75ZM10.2954 30.0454L6.77272 29.2636V27.7863L10.2954 28.4273V30.0454ZM10.2954 25.9091V27.5045L6.77272 26.8636V24.7182L8.99545 18.9227L12.1136 20.0909L10.2954 25.9091ZM12.3182 33.6363C12.0975 33.6309 11.8862 33.5454 11.724 33.3957C11.5617 33.2459 11.4595 33.0423 11.4364 32.8227L11.1773 30.25V25.9091L12.1818 22.7273H19.5454V28.6363H12.9409C12.8203 28.6363 12.7047 28.6842 12.6195 28.7695C12.5342 28.8547 12.4864 28.9703 12.4864 29.0909V29.1409C12.4987 29.2526 12.552 29.3557 12.6359 29.4304C12.7199 29.5052 12.8285 29.5461 12.9409 29.5454H19.5454V33.6363H12.3182ZM28.8045 30.2273L28.5364 32.8227C28.5132 33.0423 28.411 33.2459 28.2487 33.3957C28.0865 33.5454 27.8753 33.6309 27.6545 33.6363H20.4545V29.5454H27.0454C27.166 29.5454 27.2816 29.4975 27.3669 29.4123C27.4521 29.3271 27.5 29.2114 27.5 29.0909V29.0363C27.4866 28.9255 27.4328 28.8234 27.349 28.7496C27.2652 28.6759 27.1571 28.6355 27.0454 28.6363H20.4545V22.7273H27.7545L28.8045 25.9773V30.2273ZM33.2136 29.25L29.6864 30.0318V28.5091L33.2136 27.8682V29.25ZM33.2136 26.95L29.6864 27.5909V25.9091L27.8227 20.1136L31.0045 18.9091L33.1954 24.7L33.2136 26.95Z"
    fill="currentColor" />
  <path
    d="M25.3363 24.0909C25.2783 23.9874 25.182 23.9108 25.0682 23.8773C25.012 23.8609 24.9531 23.8565 24.8952 23.8644C24.8372 23.8722 24.7816 23.8921 24.7318 23.9228L24.6863 23.95C24.6026 24.013 24.5432 24.1029 24.5182 24.2046C24.502 24.264 24.4982 24.326 24.5068 24.387C24.5154 24.4479 24.5362 24.5065 24.5682 24.5591L26.1091 27.2864C26.1671 27.3899 26.2634 27.4666 26.3772 27.5C26.491 27.5289 26.6116 27.5126 26.7136 27.4546L26.7636 27.4182C26.8414 27.3573 26.8973 27.2728 26.9227 27.1773C26.9516 27.0605 26.9354 26.9371 26.8772 26.8318L25.3363 24.0909Z"
    fill="currentColor" />
</svg>